<svg width="118" height="118" viewBox="0 0 118 118" fill="none" xmlns="http://www.w3.org/2000/svg">
<path d="M115.368 56.4005C80.491 47.9606 70.6538 37.788 63.0523 2.68692C62.9059 1.91288 62.4871 1.21675 61.8719 0.724643C61.2568 0.232533 60.4858 -0.0231047 59.6985 0.00397139C58.9259 -0.0232964 58.169 0.22648 57.5643 0.708182C56.9596 1.18988 56.5471 1.8718 56.401 2.63097C47.9611 37.5084 37.7882 47.3457 2.68717 54.9472C1.93252 55.1177 1.25842 55.5398 0.775384 56.1442C0.292352 56.7485 0.0292969 57.4992 0.0292969 58.2728C0.0292969 59.0465 0.292352 59.7972 0.775384 60.4015C1.25842 61.0059 1.93252 61.428 2.68717 61.5985C37.5646 70.0384 47.4021 80.211 54.9477 115.256C55.0929 116.035 55.5094 116.738 56.1233 117.239C56.7372 117.741 57.5087 118.008 58.3012 117.995C59.0754 118.003 59.8293 117.747 60.4388 117.27C61.0483 116.792 61.4773 116.121 61.655 115.368C70.039 80.4904 80.2673 70.6532 115.312 63.0517C116.067 62.8812 116.741 62.4591 117.224 61.8548C117.707 61.2504 117.971 60.4997 117.971 59.726C117.971 58.9524 117.707 58.2017 117.224 57.5974C116.741 56.993 116.067 56.571 115.312 56.4005" fill="#1ED75A"/>
</svg>
